<svg width="221" height="64" viewBox="0 0 221 64" fill="none" xmlns="http://www.w3.org/2000/svg">
<path d="M70.564 24.868H69.988C69.868 25.372 69.676 25.84 69.412 26.272C69.148 26.704 68.824 27.088 68.44 27.424C68.056 27.736 67.624 27.976 67.144 28.144C66.664 28.336 66.172 28.432 65.668 28.432C63.46 28.432 61.852 27.616 60.844 25.984C59.836 24.328 59.332 21.856 59.332 18.568C59.332 15.28 59.836 12.808 60.844 11.152C61.876 9.496 63.484 8.668 65.668 8.668C66.172 8.668 66.664 8.764 67.144 8.956C67.624 9.124 68.056 9.376 68.44 9.712C68.824 10.024 69.148 10.396 69.412 10.828C69.676 11.26 69.868 11.728 69.988 12.232H70.564V1.36H75.604V28H70.564V24.868ZM67.684 24.328C68.596 24.328 69.304 24.124 69.808 23.716C70.312 23.284 70.564 22.648 70.564 21.808V15.292C70.564 14.452 70.312 13.828 69.808 13.42C69.304 12.988 68.596 12.772 67.684 12.772C66.748 12.772 65.992 13.072 65.416 13.672C64.864 14.248 64.588 15.076 64.588 16.156V20.944C64.588 22.024 64.864 22.864 65.416 23.464C65.992 24.04 66.748 24.328 67.684 24.328ZM87.441 28.432C84.849 28.432 82.773 27.616 81.213 25.984C79.677 24.328 78.909 21.856 78.909 18.568C78.909 15.208 79.581 12.724 80.925 11.116C82.293 9.484 84.297 8.668 86.937 8.668C89.577 8.668 91.569 9.484 92.913 11.116C94.281 12.724 94.965 15.208 94.965 18.568V19.792H84.165V20.98C84.165 22.036 84.489 22.888 85.137 23.536C85.785 24.16 86.673 24.472 87.801 24.472C88.737 24.472 89.529 24.268 90.177 23.86C90.849 23.428 91.461 22.84 92.013 22.096L94.569 25.084C93.801 26.116 92.817 26.932 91.617 27.532C90.441 28.132 89.049 28.432 87.441 28.432ZM86.937 12.448C85.089 12.448 84.165 13.528 84.165 15.688V16.84H89.709V15.688C89.709 13.528 88.785 12.448 86.937 12.448ZM101.654 28L96.2182 9.1H101.33L103.958 19.396L104.714 23.752H105.29L106.046 19.396L108.674 9.1H113.57L108.134 28H101.654ZM123.089 28.432C120.497 28.432 118.421 27.616 116.861 25.984C115.325 24.328 114.557 21.856 114.557 18.568C114.557 15.208 115.229 12.724 116.573 11.116C117.941 9.484 119.945 8.668 122.585 8.668C125.225 8.668 127.217 9.484 128.561 11.116C129.929 12.724 130.613 15.208 130.613 18.568V19.792H119.813V20.98C119.813 22.036 120.137 22.888 120.785 23.536C121.433 24.16 122.321 24.472 123.449 24.472C124.385 24.472 125.177 24.268 125.825 23.86C126.497 23.428 127.109 22.84 127.661 22.096L130.217 25.084C129.449 26.116 128.465 26.932 127.265 27.532C126.089 28.132 124.697 28.432 123.089 28.432ZM122.585 12.448C120.737 12.448 119.813 13.528 119.813 15.688V16.84H125.357V15.688C125.357 13.528 124.433 12.448 122.585 12.448ZM138.815 28C137.063 28 135.803 27.616 135.035 26.848C134.291 26.056 133.919 24.856 133.919 23.248V1.36H138.959V24.076H141.083V28H138.815ZM150.851 28.432C148.211 28.432 146.207 27.628 144.839 26.02C143.495 24.412 142.823 21.928 142.823 18.568C142.823 15.208 143.495 12.724 144.839 11.116C146.207 9.484 148.211 8.668 150.851 8.668C153.491 8.668 155.483 9.484 156.827 11.116C158.195 12.724 158.879 15.208 158.879 18.568C158.879 21.928 158.195 24.412 156.827 26.02C155.483 27.628 153.491 28.432 150.851 28.432ZM150.851 24.436C152.699 24.436 153.623 23.356 153.623 21.196V15.904C153.623 13.744 152.699 12.664 150.851 12.664C149.003 12.664 148.079 13.744 148.079 15.904V21.196C148.079 23.356 149.003 24.436 150.851 24.436ZM162.184 9.1H167.224V12.232H167.8C167.896 11.728 168.076 11.26 168.34 10.828C168.628 10.396 168.964 10.024 169.348 9.712C169.732 9.376 170.164 9.124 170.644 8.956C171.124 8.764 171.616 8.668 172.12 8.668C174.304 8.668 175.9 9.496 176.908 11.152C177.94 12.808 178.456 15.28 178.456 18.568C178.456 21.856 177.952 24.328 176.944 25.984C175.936 27.616 174.328 28.432 172.12 28.432C171.616 28.432 171.124 28.336 170.644 28.144C170.164 27.976 169.732 27.736 169.348 27.424C168.964 27.088 168.628 26.704 168.34 26.272C168.076 25.84 167.896 25.372 167.8 24.868H167.224V35.2H162.184V9.1ZM170.104 24.328C171.04 24.328 171.784 24.04 172.336 23.464C172.912 22.864 173.2 22.024 173.2 20.944V16.156C173.2 15.076 172.912 14.248 172.336 13.672C171.784 13.072 171.04 12.772 170.104 12.772C169.192 12.772 168.484 12.988 167.98 13.42C167.476 13.828 167.224 14.452 167.224 15.292V21.808C167.224 22.648 167.476 23.284 167.98 23.716C168.484 24.124 169.192 24.328 170.104 24.328ZM189.429 28.432C186.837 28.432 184.761 27.616 183.201 25.984C181.665 24.328 180.897 21.856 180.897 18.568C180.897 15.208 181.569 12.724 182.913 11.116C184.281 9.484 186.285 8.668 188.925 8.668C191.565 8.668 193.557 9.484 194.901 11.116C196.269 12.724 196.953 15.208 196.953 18.568V19.792H186.153V20.98C186.153 22.036 186.477 22.888 187.125 23.536C187.773 24.16 188.661 24.472 189.789 24.472C190.725 24.472 191.517 24.268 192.165 23.86C192.837 23.428 193.449 22.84 194.001 22.096L196.557 25.084C195.789 26.116 194.805 26.932 193.605 27.532C192.429 28.132 191.037 28.432 189.429 28.432ZM188.925 12.448C187.077 12.448 186.153 13.528 186.153 15.688V16.84H191.697V15.688C191.697 13.528 190.773 12.448 188.925 12.448ZM200.259 28V9.1H205.299V13.132H205.875C205.947 12.604 206.067 12.1 206.235 11.62C206.403 11.116 206.631 10.684 206.919 10.324C207.231 9.94 207.615 9.64 208.071 9.424C208.527 9.208 209.067 9.1 209.691 9.1H210.591V14.212H209.295C207.927 14.212 206.919 14.404 206.271 14.788C205.623 15.172 205.299 15.904 205.299 16.984V28H200.259ZM72.652 56C70.684 56 69.616 54.908 69.448 52.724H68.98C68.788 53.876 68.272 54.788 67.432 55.46C66.592 56.108 65.524 56.432 64.228 56.432C62.524 56.432 61.24 55.952 60.376 54.992C59.512 54.008 59.08 52.652 59.08 50.924C59.08 48.86 59.704 47.36 60.952 46.424C62.224 45.488 63.988 45.02 66.244 45.02H68.98V43.544C68.98 42.56 68.776 41.828 68.368 41.348C67.96 40.868 67.276 40.628 66.316 40.628C65.476 40.628 64.768 40.844 64.192 41.276C63.64 41.684 63.148 42.236 62.716 42.932L59.728 40.268C60.496 39.14 61.432 38.264 62.536 37.64C63.64 36.992 65.056 36.668 66.784 36.668C69.256 36.668 71.08 37.244 72.256 38.396C73.432 39.548 74.02 41.264 74.02 43.544V52.076H75.568V56H72.652ZM66.244 52.904C66.988 52.904 67.624 52.7 68.152 52.292C68.704 51.86 68.98 51.2 68.98 50.312V47.972H66.712C64.984 47.972 64.12 48.692 64.12 50.132V50.816C64.12 51.536 64.3 52.064 64.66 52.4C65.044 52.736 65.572 52.904 66.244 52.904ZM85.6705 56.432C83.0305 56.432 81.0385 55.628 79.6945 54.02C78.3505 52.412 77.6785 49.928 77.6785 46.568C77.6785 43.208 78.3505 40.724 79.6945 39.116C81.0385 37.484 83.0305 36.668 85.6705 36.668C87.5425 36.668 89.0305 37.1 90.1345 37.964C91.2625 38.804 92.0665 40.004 92.5465 41.564L88.4785 43.364C88.3585 42.452 88.0825 41.78 87.6505 41.348C87.2185 40.892 86.5585 40.664 85.6705 40.664C83.8465 40.664 82.9345 41.744 82.9345 43.904V49.196C82.9345 51.356 83.8465 52.436 85.6705 52.436C86.5825 52.436 87.2545 52.208 87.6865 51.752C88.1425 51.272 88.4785 50.552 88.6945 49.592L92.6185 51.32C91.5865 54.728 89.2705 56.432 85.6705 56.432ZM108.054 56C106.086 56 105.018 54.908 104.85 52.724H104.382C104.19 53.876 103.674 54.788 102.834 55.46C101.994 56.108 100.926 56.432 99.6303 56.432C97.9263 56.432 96.6423 55.952 95.7783 54.992C94.9143 54.008 94.4823 52.652 94.4823 50.924C94.4823 48.86 95.1063 47.36 96.3543 46.424C97.6263 45.488 99.3903 45.02 101.646 45.02H104.382V43.544C104.382 42.56 104.178 41.828 103.77 41.348C103.362 40.868 102.678 40.628 101.718 40.628C100.878 40.628 100.17 40.844 99.5943 41.276C99.0423 41.684 98.5503 42.236 98.1183 42.932L95.1303 40.268C95.8983 39.14 96.8343 38.264 97.9383 37.64C99.0423 36.992 100.458 36.668 102.186 36.668C104.658 36.668 106.482 37.244 107.658 38.396C108.834 39.548 109.422 41.264 109.422 43.544V52.076H110.97V56H108.054ZM101.646 52.904C102.39 52.904 103.026 52.7 103.554 52.292C104.106 51.86 104.382 51.2 104.382 50.312V47.972H102.114C100.386 47.972 99.5223 48.692 99.5223 50.132V50.816C99.5223 51.536 99.7023 52.064 100.062 52.4C100.446 52.736 100.974 52.904 101.646 52.904ZM124.529 52.868H123.953C123.833 53.372 123.641 53.84 123.377 54.272C123.113 54.704 122.789 55.088 122.405 55.424C122.021 55.736 121.589 55.976 121.109 56.144C120.629 56.336 120.137 56.432 119.633 56.432C117.425 56.432 115.817 55.616 114.809 53.984C113.801 52.328 113.297 49.856 113.297 46.568C113.297 43.28 113.801 40.808 114.809 39.152C115.841 37.496 117.449 36.668 119.633 36.668C120.137 36.668 120.629 36.764 121.109 36.956C121.589 37.124 122.021 37.376 122.405 37.712C122.789 38.024 123.113 38.396 123.377 38.828C123.641 39.26 123.833 39.728 123.953 40.232H124.529V29.36H129.569V56H124.529V52.868ZM121.649 52.328C122.561 52.328 123.269 52.124 123.773 51.716C124.277 51.284 124.529 50.648 124.529 49.808V43.292C124.529 42.452 124.277 41.828 123.773 41.42C123.269 40.988 122.561 40.772 121.649 40.772C120.713 40.772 119.957 41.072 119.381 41.672C118.829 42.248 118.553 43.076 118.553 44.156V48.944C118.553 50.024 118.829 50.864 119.381 51.464C119.957 52.04 120.713 52.328 121.649 52.328ZM141.406 56.432C138.814 56.432 136.738 55.616 135.178 53.984C133.642 52.328 132.874 49.856 132.874 46.568C132.874 43.208 133.546 40.724 134.89 39.116C136.258 37.484 138.262 36.668 140.902 36.668C143.542 36.668 145.534 37.484 146.878 39.116C148.246 40.724 148.93 43.208 148.93 46.568V47.792H138.13V48.98C138.13 50.036 138.454 50.888 139.102 51.536C139.75 52.16 140.638 52.472 141.766 52.472C142.702 52.472 143.494 52.268 144.142 51.86C144.814 51.428 145.426 50.84 145.978 50.096L148.534 53.084C147.766 54.116 146.782 54.932 145.582 55.532C144.406 56.132 143.014 56.432 141.406 56.432ZM140.902 40.448C139.054 40.448 138.13 41.528 138.13 43.688V44.84H143.674V43.688C143.674 41.528 142.75 40.448 140.902 40.448ZM152.235 56V37.1H157.275V40.304H157.851C157.995 39.8 158.187 39.332 158.427 38.9C158.691 38.468 158.991 38.084 159.327 37.748C159.687 37.412 160.107 37.148 160.587 36.956C161.067 36.764 161.619 36.668 162.243 36.668C163.467 36.668 164.439 37.004 165.159 37.676C165.879 38.324 166.407 39.26 166.743 40.484H167.211C167.619 39.164 168.255 38.204 169.119 37.604C170.007 36.98 171.027 36.668 172.179 36.668C173.787 36.668 175.011 37.244 175.851 38.396C176.715 39.548 177.147 41.132 177.147 43.148V56H172.107V44.12C172.107 41.888 171.375 40.772 169.911 40.772C169.167 40.772 168.531 41.012 168.003 41.492C167.475 41.948 167.211 42.596 167.211 43.436V56H162.171V44.12C162.171 41.888 161.439 40.772 159.975 40.772C159.231 40.772 158.595 41.012 158.067 41.492C157.539 41.948 157.275 42.596 157.275 43.436V56H152.235ZM191.504 37.1H196.544L189.452 59.6C189.236 60.296 188.96 60.872 188.624 61.328C188.312 61.808 187.928 62.18 187.472 62.444C187.04 62.732 186.536 62.924 185.96 63.02C185.384 63.14 184.724 63.2 183.98 63.2H180.596V59.276H184.7L185.312 57.044L178.976 37.1H184.16L186.932 47.576L187.616 51.752H188.12L188.804 47.54L191.504 37.1Z" fill="#13183F"/>
<path d="M40.4243 30.2519C40.5994 30.0536 40.7698 29.8555 40.9355 29.6585C41.1511 29.6914 41.372 29.7085 41.5966 29.7085C44.0082 29.7085 45.9701 27.7465 45.9701 25.3349C45.9701 24.2464 45.5695 23.2503 44.9091 22.484L44.9198 22.4355C45.3162 20.6203 45.1225 19.0165 44.3443 17.6688C42.713 14.8432 38.8117 13.701 33.3596 14.4517C32.7572 14.5348 32.1332 14.6415 31.4953 14.7706C31.2883 14.1544 31.0686 13.5604 30.8389 12.9964C28.7632 7.89908 25.8232 5.0918 22.5605 5.0918C19.2977 5.0918 16.3577 7.89908 14.282 12.9964C14.0642 13.5312 13.8557 14.0941 13.6579 14.6774C13.1494 12.8255 11.452 11.4605 9.44077 11.4605C7.46089 11.4605 5.78499 12.7833 5.24823 14.5914C3.1411 15.111 1.62879 16.1412 0.754282 17.6558C-1.04059 20.7646 0.402822 25.3138 4.71075 30.2233C4.27319 30.7181 3.86193 31.2129 3.48262 31.7011C0.106225 36.0475 -0.854887 39.9973 0.77639 42.8228C2.53246 45.8643 7.03502 46.9094 13.23 45.7575C12.76 46.4546 12.4855 47.2937 12.4855 48.1957C12.4855 50.6073 14.4474 52.5693 16.859 52.5693C16.9796 52.5693 17.0987 52.563 17.2168 52.5534L17.2371 52.5771C18.8261 54.4238 20.667 55.3999 22.5606 55.3999C26.1474 55.3999 29.3636 51.8814 31.4614 45.7058C32.1032 45.8359 32.7313 45.9436 33.3375 46.0271C38.7897 46.7779 42.6909 45.6356 44.3223 42.81C45.9537 39.9843 44.9924 36.0346 41.6159 31.6884C41.247 31.2135 40.8481 30.7327 40.4243 30.2519ZM22.5604 52.1557C21.7839 52.1557 20.9915 51.7718 20.1999 51.0137C20.8433 50.252 21.2323 49.2687 21.2323 48.1958C21.2323 46.4742 20.2319 44.9822 18.7823 44.2693C20.0255 43.8415 21.2864 43.349 22.5561 42.793C24.5336 43.6631 26.4863 44.382 28.3791 44.9373C26.8519 49.4174 24.6641 52.1557 22.5604 52.1557ZM9.44067 20.2076C10.6258 20.2076 11.7017 19.7331 12.4901 18.9649C12.1483 20.558 11.8796 22.2317 11.6901 23.9695C9.94703 25.2467 8.34697 26.578 6.91799 27.9403C3.79273 24.3719 2.51045 21.1026 3.5637 19.2782C3.93001 18.6439 4.60304 18.1671 5.56528 17.8574C6.29666 19.2528 7.75892 20.2076 9.44067 20.2076ZM15.2986 21.535C15.4648 20.5472 15.6594 19.5896 15.8812 18.6684C16.7894 18.9374 17.7153 19.2482 18.653 19.5984C18.0841 19.9027 17.5178 20.2175 16.9573 20.541C16.3993 20.8633 15.8453 21.1952 15.2986 21.535ZM22.5637 17.6921C20.6035 16.8275 18.6655 16.1109 16.7844 15.5546C16.9444 15.0917 17.1121 14.6446 17.2859 14.2178C18.8081 10.48 20.7305 8.33623 22.5604 8.33623C24.3903 8.33623 26.3126 10.4799 27.8349 14.2177C28.0094 14.6464 28.1778 15.0955 28.3385 15.5602C26.4593 16.1146 24.5232 16.8293 22.5637 17.6921ZM28.1412 20.5282C27.5902 20.2101 27.0337 19.9005 26.4744 19.6011C27.4107 19.252 28.3349 18.9425 29.2412 18.6746C29.4626 19.5942 29.6569 20.5501 29.8227 21.5361C29.2692 21.1919 28.7076 20.8553 28.1412 20.5282ZM33.7354 28.3174C34.5045 28.9534 35.2337 29.599 35.9176 30.2497C35.2332 30.8999 34.5039 31.5446 33.7343 32.1801C33.7556 31.5366 33.7664 30.8905 33.7664 30.2459C33.7664 29.6025 33.7561 28.9585 33.7354 28.3174ZM41.8717 20.971C41.7807 20.9653 41.6892 20.9615 41.5966 20.9615C39.185 20.9615 37.2231 22.9234 37.2231 25.335C37.2231 26.1886 37.4698 26.9852 37.8943 27.6591C36.5448 26.3964 35.0509 25.161 33.4316 23.9734C33.1992 21.8426 32.8498 19.8059 32.3899 17.8994C32.8742 17.8057 33.347 17.727 33.8039 17.6641C37.8022 17.1135 40.6197 17.7065 41.5346 19.2911C41.801 19.7524 41.9119 20.3169 41.8717 20.971ZM11.3857 28.3117C11.3648 28.9556 11.3543 29.6015 11.3543 30.2459C11.3543 30.8986 11.365 31.5528 11.3864 32.2043C10.6061 31.5658 9.86748 30.9191 9.1751 30.268C9.86758 29.6092 10.606 28.9556 11.3857 28.3117ZM16.9352 39.9377C17.5068 40.2677 18.0849 40.5888 18.6661 40.8991C17.7243 41.2544 16.7954 41.5697 15.8861 41.8428C15.6622 40.9159 15.4661 39.9519 15.2988 38.9568C15.8387 39.2926 16.3851 39.6201 16.9352 39.9377ZM22.5676 39.2327C21.2224 38.596 19.8755 37.8892 18.5574 37.1282C17.2584 36.3782 15.9895 35.5781 14.7791 34.7458C14.6593 33.2724 14.5986 31.761 14.5986 30.2459C14.5986 28.7347 14.6591 27.2255 14.7785 25.7526C15.9918 24.9146 17.2684 24.1078 18.5796 23.3509C19.8901 22.5943 21.228 21.8917 22.5633 21.2586C23.8866 21.8869 25.2151 22.5852 26.5191 23.3381C27.8381 24.0996 29.1225 24.9117 30.343 25.7555C30.462 27.2246 30.5222 28.7329 30.5222 30.246C30.5222 31.7565 30.4632 33.2646 30.3464 34.7363C29.1301 35.5765 27.8523 36.3842 26.5413 37.1411C25.2325 37.8965 23.8979 38.599 22.5676 39.2327ZM6.96529 32.5707C8.38219 33.9266 9.96627 35.2496 11.6897 36.5166C11.9237 38.6636 12.2763 40.7141 12.741 42.6318C8.10025 43.5478 4.63724 43.0217 3.58582 41.2007C2.67088 39.616 3.56627 36.8793 6.04226 33.6921C6.32943 33.3225 6.6382 32.9475 6.96529 32.5707ZM29.2674 41.8186C28.3539 41.5498 27.4221 41.2387 26.4776 40.8872C27.0437 40.5848 27.6068 40.272 28.1636 39.9506C28.7278 39.6248 29.2873 39.2894 29.8387 38.9466C29.6758 39.9371 29.4851 40.8965 29.2674 41.8186ZM33.4237 36.5271C35.1527 35.2608 36.741 33.9409 38.1615 32.5905C38.478 32.956 38.7772 33.32 39.0561 33.6792C41.5321 36.8664 42.4274 39.6031 41.5124 41.1877C40.5975 42.7725 37.7796 43.3656 33.7817 42.8148C33.3248 42.7519 32.8519 42.6732 32.3674 42.5794C32.8335 40.677 33.1878 38.6476 33.4237 36.5271Z" fill="white"/>
<path d="M22.5488 23.387C18.683 23.387 15.5381 26.532 15.5381 30.3978C15.5381 34.2635 18.6831 37.4085 22.5488 37.4085C26.4146 37.4085 29.5596 34.2635 29.5596 30.3978C29.5596 26.532 26.4146 23.387 22.5488 23.387Z" fill="white"/>
<path d="M43.4577 18.1809C44.1193 19.3265 44.2509 20.7003 43.9196 22.2172C43.591 21.9719 43.2224 21.7774 42.8253 21.6452C43.0082 20.5551 42.8859 19.5837 42.4215 18.7792C41.2323 16.7195 37.9723 16.0564 33.6644 16.6498C32.854 16.7614 32.0087 16.9184 31.1346 17.1186C31.7381 19.3573 32.192 21.8574 32.4612 24.5334C34.6417 26.1048 36.5775 27.7477 38.2117 29.3894C38.5359 29.0408 38.8451 28.693 39.1392 28.3467C39.4518 28.602 39.8047 28.8097 40.187 28.9586C39.8276 29.3876 39.4459 29.8189 39.0422 30.2511C39.6878 30.9439 40.2776 31.6342 40.8075 32.3164C43.7813 36.1444 44.8925 39.7748 43.4357 42.2981C41.9789 44.8215 38.2793 45.6743 33.4773 45.013C32.6115 44.8937 31.7079 44.7252 30.7735 44.5089C28.9204 50.4915 25.9315 54.3763 22.5606 54.3763C20.9148 54.3763 19.3729 53.4897 18.0131 51.9094C18.4106 51.7859 18.7808 51.6005 19.1122 51.3644C20.1822 52.5319 21.3486 53.1794 22.5606 53.1794C25.4585 53.1794 28.0362 49.6748 29.6794 44.2372C27.4285 43.6417 25.0234 42.7825 22.5574 41.6727C20.1091 42.7699 17.717 43.6183 15.4706 44.2067C15.5034 44.3141 15.5366 44.4209 15.5702 44.5269C15.182 44.6635 14.8217 44.8597 14.5009 45.105C14.4351 44.903 14.3708 44.6981 14.3079 44.4909C8.20353 45.8749 3.34789 45.229 1.66307 42.3109C0.206349 39.7877 1.31745 36.1572 4.2912 32.3293C4.83083 31.6349 5.43259 30.9317 6.09211 30.2262C1.82953 25.6257 -0.0461175 21.0897 1.64085 18.1678C2.39691 16.8582 3.75761 15.9989 5.56241 15.5674C5.55648 15.6555 5.55299 15.7444 5.55299 15.834C5.55299 16.1537 5.5921 16.4645 5.66489 16.7618C4.27492 17.1248 3.24224 17.7877 2.67732 18.7662C1.22674 21.2786 2.9783 25.2685 6.87447 29.4152C8.51721 27.7636 10.4652 26.1104 12.6608 24.5299C12.9303 21.8522 13.3848 19.3506 13.9891 17.1111C13.7136 17.0478 13.4406 16.9885 13.171 16.934C13.2737 16.5852 13.3288 16.216 13.3288 15.8342C13.3288 15.8048 13.3284 15.7757 13.3278 15.7466C13.6542 15.812 13.985 15.8837 14.3196 15.9612C14.5982 15.0496 14.9026 14.1877 15.2304 13.3827C17.0586 8.89321 19.647 6.11572 22.5608 6.11572C25.4746 6.11572 28.0629 8.89321 29.8911 13.3827C30.2197 14.1897 30.5251 15.0538 30.8044 15.9681C31.7358 15.7527 32.6366 15.5848 33.4997 15.4659C38.3014 14.8047 42.001 15.6575 43.4577 18.1809ZM32.597 26.1179C32.6929 27.4591 32.7427 28.8386 32.7427 30.2459C32.7427 31.6556 32.6914 33.0366 32.5934 34.3801C34.3909 33.0318 35.9995 31.6395 37.3825 30.2505C36.0011 28.8606 34.3938 27.4673 32.597 26.1179ZM38.2108 31.1121C36.5742 32.7532 34.6363 34.3957 32.4542 35.966C32.1808 38.6311 31.7203 41.1228 31.1081 43.3593C31.9837 43.5601 32.8305 43.7173 33.6422 43.8291C37.9501 44.4225 41.2101 43.7594 42.3992 41.6998C43.5883 39.6401 42.5325 36.4854 39.8648 33.0512C39.3674 32.4112 38.8149 31.7631 38.2108 31.1121ZM30.0053 43.0873C30.5072 41.1957 30.9014 39.1029 31.1653 36.8658C30.0482 37.6222 28.8746 38.3579 27.6517 39.0641C26.4322 39.7681 25.2118 40.4137 24.0006 40.9999C26.0796 41.8864 28.101 42.5849 30.0053 43.0873ZM21.1328 41.0069C19.9109 40.4145 18.6786 39.7622 17.4473 39.0512C16.2345 38.351 15.0719 37.6208 13.9643 36.8696C14.2351 39.1136 14.6398 41.2147 15.1557 43.116C17.0475 42.6046 19.0604 41.8983 21.1328 41.0069ZM12.6605 35.9573C10.4856 34.387 8.55387 32.7409 6.91994 31.0907C6.30352 31.7531 5.74004 32.4128 5.23389 33.0642C2.56604 36.4983 1.51022 39.653 2.69933 41.7128C4.14786 44.2215 8.4689 44.702 13.9969 43.408C13.3884 41.1602 12.9313 38.6474 12.6605 35.9573ZM7.70701 30.2725C9.09709 31.6545 10.7167 33.0437 12.5257 34.3918C12.4288 33.0449 12.3782 31.6595 12.3782 30.2459C12.3782 28.8371 12.4286 27.4561 12.5248 26.1136C10.7147 27.4715 9.09657 28.8737 7.70701 30.2725ZM13.8003 35.3127C15.1305 36.2447 16.5496 37.1511 18.0456 38.0148C19.561 38.8898 21.0761 39.6735 22.5692 40.3636C24.0483 39.675 25.5501 38.8954 27.0533 38.0276C28.5601 37.1577 29.9889 36.243 31.3265 35.3008C31.47 33.6742 31.5461 31.9828 31.5461 30.2459C31.5461 28.509 31.4689 26.8173 31.3222 25.1905C29.9795 24.244 28.5446 23.3253 27.0311 22.4515C25.5345 21.5875 24.0387 20.8119 22.5637 20.128C21.0797 20.815 19.5739 21.5947 18.0679 22.4643C16.5627 23.3333 15.1358 24.2465 13.7996 25.1875C13.6528 26.8152 13.5752 28.5081 13.5752 30.246C13.5751 31.9869 13.6529 33.6823 13.8003 35.3127ZM21.1248 19.4865C19.0569 18.6021 17.0453 17.9038 15.1491 17.3991C14.6364 19.2937 14.234 21.3857 13.9644 23.6202C15.0792 22.8657 16.2493 22.1321 17.4694 21.4278C18.6905 20.7227 19.9128 20.075 21.1248 19.4865ZM15.4805 16.2512C17.7209 16.8493 20.1125 17.7073 22.5636 18.8129C25.0138 17.7094 27.4038 16.8534 29.6426 16.2574C29.379 15.4001 29.0916 14.5895 28.7831 13.8318C27.1429 9.80427 24.9387 7.31261 22.5605 7.31261C20.1823 7.31261 17.978 9.80427 16.3379 13.8318C16.0301 14.5876 15.7434 15.3962 15.4805 16.2512ZM24.0026 19.4875C25.2053 20.0724 26.4177 20.7153 27.6295 21.4149C28.8576 22.124 30.0359 22.8628 31.1573 23.6224C30.8881 21.3898 30.4858 19.2991 29.9738 17.4057C28.0792 17.9089 26.0694 18.6054 24.0026 19.4875Z" fill="#13183F"/>
<path fill-rule="evenodd" clip-rule="evenodd" d="M9.4406 19.1836C11.2855 19.1836 12.7904 17.6788 12.7904 15.8339C12.7904 13.9889 11.2856 12.4841 9.4406 12.4841C7.59556 12.4841 6.09082 13.9889 6.09082 15.8339C6.09082 17.6788 7.59556 19.1836 9.4406 19.1836Z" fill="#13183F"/>
<path d="M7.09897 15.8335C7.09897 15.956 6.99945 16.0555 6.8767 16.0555C6.75416 16.0555 6.65454 15.956 6.65454 15.8335C6.65454 15.0642 6.96669 14.3674 7.4707 13.8634C7.9747 13.3594 8.67147 13.0474 9.44073 13.0474C9.56328 13.0474 9.66279 13.1469 9.66279 13.2694C9.66279 13.3923 9.56328 13.4917 9.44073 13.4917C8.79401 13.4917 8.20852 13.7539 7.78489 14.1776C7.36105 14.6012 7.09897 15.1867 7.09897 15.8335Z" fill="white"/>
<path fill-rule="evenodd" clip-rule="evenodd" d="M41.5967 28.6846C43.4416 28.6846 44.9464 27.1798 44.9464 25.3349C44.9464 23.4899 43.4417 21.9851 41.5967 21.9851C39.7517 21.9851 38.2468 23.4898 38.2468 25.3349C38.2468 27.1799 39.7517 28.6846 41.5967 28.6846Z" fill="#13183F"/>
<path d="M39.2547 25.3344C39.2547 25.4571 39.1552 25.5565 39.0325 25.5565C38.9099 25.5565 38.8103 25.4571 38.8103 25.3344C38.8103 24.5652 39.1225 23.8684 39.6265 23.3644C40.1305 22.8604 40.8272 22.5483 41.5965 22.5483C41.719 22.5483 41.8185 22.6479 41.8185 22.7704C41.8185 22.8931 41.719 22.9927 41.5965 22.9927C40.9498 22.9927 40.3643 23.2548 39.9406 23.6786C39.5168 24.1023 39.2547 24.6877 39.2547 25.3344Z" fill="white"/>
<path fill-rule="evenodd" clip-rule="evenodd" d="M16.8588 51.5457C18.7039 51.5457 20.2086 50.0409 20.2086 48.1959C20.2086 46.3509 18.704 44.8462 16.8588 44.8462C15.0139 44.8462 13.509 46.3509 13.509 48.1959C13.509 50.0409 15.0139 51.5457 16.8588 51.5457Z" fill="#13183F"/>
<path d="M14.5169 48.1962C14.5169 48.3189 14.4173 48.4183 14.2947 48.4183C14.1721 48.4183 14.0725 48.3188 14.0725 48.1962C14.0725 47.427 14.3847 46.7302 14.8887 46.2262C15.3927 45.7222 16.0894 45.4102 16.8586 45.4102C16.9812 45.4102 17.0807 45.5097 17.0807 45.6322C17.0807 45.755 16.9812 45.8545 16.8586 45.8545C16.212 45.8545 15.6265 46.1167 15.2029 46.5404C14.779 46.964 14.5169 47.5495 14.5169 48.1962Z" fill="white"/>
<path fill-rule="evenodd" clip-rule="evenodd" d="M22.5485 36.3845C25.846 36.3845 28.5354 33.695 28.5354 30.3976C28.5354 27.1001 25.8459 24.4106 22.5485 24.4106C19.251 24.4106 16.5615 27.1001 16.5615 30.3976C16.5614 33.6951 19.251 36.3845 22.5485 36.3845Z" fill="#13183F"/>
<path d="M18.3632 30.3978C18.3632 30.617 18.1854 30.7948 17.9658 30.7948C17.7468 30.7948 17.5688 30.617 17.5688 30.3978C17.5688 29.0229 18.1266 27.7776 19.0275 26.8769C19.9283 25.976 21.1737 25.4182 22.5486 25.4182C22.7678 25.4182 22.9454 25.596 22.9454 25.815C22.9454 26.0346 22.7678 26.2125 22.5486 26.2125C21.3926 26.2125 20.3462 26.681 19.5892 27.4384C18.8318 28.1956 18.3632 29.2419 18.3632 30.3978Z" fill="white"/>
</svg>
